<svg xmlns="http://www.w3.org/2000/svg" width="105" height="26" viewBox="0 0 105 26">
  <g fill="#31C4F3" fill-rule="evenodd">
    <path d="M7.08821183 17.0945436C9.32383975 17.0945436 11.106789 15.5065156 11.106789 13.0028769 11.106789 10.4997396 9.32383975 8.77682702 7.08821183 8.77682702 4.90613189 8.77682702 3.01608673 10.3382792 3.01608673 13.0028769 3.01608673 15.6945518 5.09206236 17.0945436 7.08821183 17.0945436L7.08821183 17.0945436zM2.98931274 8.61586807C3.8143482 7.18879902 5.59779322 6.38149713 7.32769027 6.38149713 10.7344322 6.38149713 13.5556172 8.99244181 13.5556172 12.9757997 13.5556172 16.959659 10.7344322 19.4898735 7.32769027 19.4898735 5.59779322 19.4898735 3.8143482 18.790379 2.98931274 17.3362328L2.98931274 25.3310286.567754358 25.3310286.567754358 6.6507649 2.98931274 6.6507649 2.98931274 8.61586807zM24.202541 6.65071476L26.6245952 6.65071476 26.6245952 19.2205556 24.202541 19.2205556 24.202541 17.336684C23.4573317 18.8439819 21.7006607 19.4898234 20.3431204 19.4898234 17.2294048 19.4898234 15.5257859 17.44399 15.5525599 13.917936L15.5525599 6.65071476 17.9741183 6.65071476 17.9741183 13.7569771C17.9741183 15.855962 18.9860759 17.0944935 20.6891989 17.0944935 22.44587 17.0944935 24.202541 16.1257312 24.202541 13.4335549L24.202541 6.65071476zM31.8949058 19.220706L29.4728516 19.220706 29.4728516 6.65086519 31.8949058 6.65086519 31.8949058 9.47692323C32.533515 7.26962949 33.731403 6.38159741 35.3551957 6.38159741 36.2332834 6.38159741 37.1649189 6.62378798 37.5105017 6.86597855L37.1381449 9.15400247C36.472266 8.83058028 35.8073786 8.72277289 35.3016478 8.72277289 32.9063676 8.72277289 31.8949058 11.3071418 31.8949058 14.6451596L31.8949058 19.220706zM45.7084982 17.0945436C47.9441261 17.0945436 49.7270753 15.5065156 49.7270753 13.0028769 49.7270753 10.4997396 47.9441261 8.77682702 45.7084982 8.77682702 43.5264183 8.77682702 41.6363731 10.3382792 41.6363731 13.0028769 41.6363731 15.6945518 43.7123487 17.0945436 45.7084982 17.0945436L45.7084982 17.0945436zM41.6095991 8.61586807C42.4346346 7.18879902 44.2180796 6.38149713 45.9479766 6.38149713 49.3547186 6.38149713 52.1759035 8.99244181 52.1759035 12.9757997 52.1759035 16.959659 49.3547186 19.4898735 45.9479766 19.4898735 44.2180796 19.4898735 42.4346346 18.790379 41.6095991 17.3362328L41.6095991 25.3310286 39.1880407 25.3310286 39.1880407 6.6507649 41.6095991 6.6507649 41.6095991 8.61586807zM64.3663973 12.8955709C64.3663973 10.3653564 62.5031261 8.77682702 60.2674982 8.77682702 58.0323661 8.77682702 56.1690949 10.3653564 56.1690949 12.8955709 56.1690949 15.4528626 58.0323661 17.1216208 60.2674982 17.1216208 62.5031261 17.1216208 64.3663973 15.4528626 64.3663973 12.8955709M53.7738147 12.8955709C53.7738147 8.91171162 56.727878 6.38149713 60.2674982 6.38149713 63.8076143 6.38149713 66.7884515 8.91171162 66.7884515 12.8955709 66.7884515 16.8789288 63.8076143 19.4898735 60.2674982 19.4898735 56.727878 19.4898735 53.7738147 16.8789288 53.7738147 12.8955709M68.7052707 9.58437962C68.8916969 7.75466248 70.8080203 6.38124641 73.0168742 6.38124641 75.1201196 6.38124641 77.1157733 7.37758731 77.3289736 9.93437758L75.0135195 9.93437758C74.8801454 8.99219109 74.0283359 8.50831139 73.0704222 8.50831139 72.1655606 8.50831139 71.3935773 8.96561532 71.207151 9.6380326 71.1005509 10.042185 71.1005509 10.33853 71.233925 10.6343735 71.4734034 11.1458318 72.0589605 11.4145982 72.6980654 11.6031358L74.5340668 12.0609411C77.1157733 12.7072841 77.7548783 14.2953121 77.7548783 15.7213783 77.7548783 18.0635566 75.5187546 19.4901242 72.9370481 19.4901242 70.7014201 19.4901242 68.3859661 18.0364794 68.3061399 15.4526119L70.5149939 15.4526119C70.5953158 15.990646 70.9413944 16.5828346 71.5264556 16.8791795 72.0589605 17.2021003 72.6980654 17.3635607 73.4963269 17.3094063 74.613893 17.2291775 75.3591023 16.5828346 75.3858762 15.6677253 75.4121544 14.752616 74.6406669 14.2953121 73.7358053 14.0796973L72.0321865 13.6760463C69.7697846 13.0567806 68.4920704 11.8994808 68.7052707 9.58437962M80.0974038 19.2206559L82.492684 19.2206559 82.492684 6.65081504 80.0974038 6.65081504 80.0974038 19.2206559zM81.294796.43258478C82.2264316.43258478 82.9716409 1.1055035 82.9716409 2.02061278 82.9716409 2.93622349 82.2264316 3.60864078 81.294796 3.60864078 80.3899344 3.60864078 79.6179511 2.93622349 79.6179511 2.02061278 79.6179511 1.1055035 80.3899344.43258478 81.294796.43258478L81.294796.43258478z"/>
    <polygon points="91.729 6.651 91.729 8.723 89.094 8.723 89.094 19.221 86.672 19.221 86.672 8.723 84.436 8.723 84.436 6.651 86.672 6.651 86.672 1.913 89.094 1.913 89.094 6.651"/>
    <polygon points="94.629 25.331 97.238 18.844 92.26 6.651 94.842 6.651 98.568 15.749 102.295 6.651 104.876 6.651 97.158 25.331"/>
  </g>
</svg>
