<svg xmlns="http://www.w3.org/2000/svg" width="16" height="14" viewBox="0 0 16 14">
  <path fill="#31C5F4" fill-rule="evenodd" d="M14.3333333,14.8975734 C13.5984,14.8975734 13,15.4925601 13,16.2257867 L13,25.5298934 C13,26.2633334 13.5966933,26.8583201 14.3333333,26.8583201 L27.6666667,26.8583201 C28.4016,26.8583201 29,26.2641867 29,25.5298934 L29,16.2257867 C29,15.4925601 28.4033067,14.8975734 27.6666667,14.8975734 L25.6090667,14.8975734 C25.2408533,14.8975734 24.8434133,14.6157601 24.8016,14.4984267 C24.5432533,13.7641334 23.73664,13.1700001 23,13.1700001 L19,13.1700001 C18.2642133,13.1700001 17.4567467,13.7641334 17.1984,14.4984267 C17.1207467,14.7183734 16.7608533,14.8975734 16.3909333,14.8975734 L14.3333333,14.8975734 Z M21,24.8649334 C23.2090667,24.8649334 25,23.0799734 25,20.8783734 C25,18.6759201 23.2090667,16.8907467 21,16.8907467 C18.7909333,16.8907467 17,18.6759201 17,20.8783734 C17,23.0799734 18.7909333,24.8649334 21,24.8649334 Z M21,22.8717601 C22.1042133,22.8717601 23,21.9791734 23,20.8783734 C23,19.7767201 22.1042133,18.8841334 21,18.8841334 C19.8957867,18.8841334 19,19.7767201 19,20.8783734 C19,21.9791734 19.8957867,22.8717601 21,22.8717601 Z" transform="translate(-13 -13)"/>
</svg>
