<svg width="32px" height="23px" viewBox="0 0 32 23" version="1.1" xmlns="http://www.w3.org/2000/svg" xmlns:xlink="http://www.w3.org/1999/xlink">
    <g id="icon-cart" stroke="none" stroke-width="1" fill="none" fill-rule="evenodd" opacity="0.25">
        <g transform="translate(-39.000000, -663.000000)" fill="#121212">
            <g id="Group" transform="translate(18.000000, 645.000000)">
                <g transform="translate(21.000000, 18.000000)">
                    <path d="M1.24324324,15 L17.4054054,15 C17.9478739,15 18.4041441,14.6483333 18.5740541,14.1616667 L18.579027,14.1633333 L22.9303784,1.66333333 L22.9254054,1.66166667 C22.970991,1.53166667 23,1.395 23,1.25 C23,0.56 22.443027,0 21.7567568,0 L1.24324324,0 C0.556972973,0 0,0.56 0,1.25 L0,13.75 C0,14.44 0.556972973,15 1.24324324,15 L1.24324324,15 Z M16.5231171,12.5 L2.48648649,12.5 L2.48648649,2.5 L20.005027,2.5 L16.5231171,12.5 Z"></path>
                    <path d="M30.72,0 L26.56,0 C26.0002133,0 25.52832,0.358044444 25.3550933,0.854155556 L25.3499733,0.852888889 L19.8882133,16.4666667 L1.28,16.4666667 C0.57344,16.4666667 0,17.0341333 0,17.7333333 C0,18.4325333 0.57344,19 1.28,19 L20.8,19 C21.3597867,19 21.83168,18.6419556 22.0049067,18.1458444 L22.0100267,18.1471111 L27.4717867,2.53333333 L30.72,2.53333333 C31.42656,2.53333333 32,1.96586667 32,1.26666667 C32,0.567466667 31.42656,0 30.72,0 L30.72,0 Z"></path>
                    <path d="M3,21.5 C3,23.5 0,23.5 0,21.5 C0,19.5 3,19.5 3,21.5"></path>
                    <path d="M21,21.5 C21,23.5 18,23.5 18,21.5 C18,19.5 21,19.5 21,21.5"></path>
                </g>
            </g>
        </g>
    </g>
</svg>
